HIERARCHY
ROOT joint_Root
{
	OFFSET 0.0 0.0 0.0
	CHANNELS 6 Xposition Yposition Zposition Zrotation Xrotation Yrotation 
	JOINT Hips
	{
		OFFSET 4.5925 91.4895 -427.239
		CHANNELS 6 Xposition Yposition Zposition Zrotation Xrotation Yrotation 
		JOINT Spine
		{
			OFFSET 15.7357 0.0 0.0
			CHANNELS 6 Xposition Yposition Zposition Zrotation Xrotation Yrotation 
			JOINT Chest
			{
				OFFSET 8.98455 -0.406207 0.0
				CHANNELS 6 Xposition Yposition Zposition Zrotation Xrotation Yrotation 
				JOINT Neck
				{
					OFFSET 16.3773 0.0 0.0
					CHANNELS 6 Xposition Yposition Zposition Zrotation Xrotation Yrotation 
					JOINT Head
					{
						OFFSET 6.45672 0.0 0.0
						CHANNELS 6 Xposition Yposition Zposition Zrotation Xrotation Yrotation 
						End Site
						{
							OFFSET 0.0 0.0 0.0
						}
					}
				}
				JOINT Shoulder_L
				{
					OFFSET 12.9942 -0.242716 4.98039
					CHANNELS 6 Xposition Yposition Zposition Zrotation Xrotation Yrotation 
					JOINT UpperArm_L
					{
						OFFSET 5.34809 0.0 0.0
						CHANNELS 6 Xposition Yposition Zposition Zrotation Xrotation Yrotation 
						JOINT LowerArm_L
						{
							OFFSET 24.3286 1.87007e-05 0.0
							CHANNELS 6 Xposition Yposition Zposition Zrotation Xrotation Yrotation 
							JOINT Hand_L
							{
								OFFSET 22.2916 0.0 0.0
								CHANNELS 6 Xposition Yposition Zposition Zrotation Xrotation Yrotation 
								End Site
								{
									OFFSET 0.0 0.0 0.0
								}
							}
						}
					}
				}
				JOINT Shoulder_R
				{
					OFFSET 12.9945 -0.242716 -4.98039
					CHANNELS 6 Xposition Yposition Zposition Zrotation Xrotation Yrotation 
					JOINT UpperArm_R
					{
						OFFSET -5.34813 0.0 0.0
						CHANNELS 6 Xposition Yposition Zposition Zrotation Xrotation Yrotation 
						JOINT LowerArm_R
						{
							OFFSET -24.3289 0.000322201 0.0
							CHANNELS 6 Xposition Yposition Zposition Zrotation Xrotation Yrotation 
							JOINT Hand_R
							{
								OFFSET -22.2915 -0.000108084 0.0
								CHANNELS 6 Xposition Yposition Zposition Zrotation Xrotation Yrotation 
								End Site
								{
									OFFSET 0.0 0.0 0.0
								}
							}
						}
					}
				}
			}
		}
		JOINT UpperLeg_L
		{
			OFFSET -2.19248 -6.46944 0.0
			CHANNELS 6 Xposition Yposition Zposition Zrotation Xrotation Yrotation 
			JOINT LowerLeg_L
			{
				OFFSET 39.0811 0.0 -1.23785e-05
				CHANNELS 6 Xposition Yposition Zposition Zrotation Xrotation Yrotation 
				JOINT Foot_L
				{
					OFFSET 40.9854 0.0 -1.26872e-05
					CHANNELS 6 Xposition Yposition Zposition Zrotation Xrotation Yrotation 
					JOINT Toes_L
					{
						OFFSET 11.7543 0.0 0.0
						CHANNELS 6 Xposition Yposition Zposition Zrotation Xrotation Yrotation 
						End Site
						{
							OFFSET 0.0 0.0 0.0
						}
					}
				}
			}
		}
		JOINT UpperLeg_R
		{
			OFFSET -2.19251 6.46944 0.0
			CHANNELS 6 Xposition Yposition Zposition Zrotation Xrotation Yrotation 
			JOINT LowerLeg_R
			{
				OFFSET -39.0811 -0.00228153 -0.0401928
				CHANNELS 6 Xposition Yposition Zposition Zrotation Xrotation Yrotation 
				JOINT Foot_R
				{
					OFFSET -40.9854 0.0 0.0
					CHANNELS 6 Xposition Yposition Zposition Zrotation Xrotation Yrotation 
					JOINT Toes_R
					{
						OFFSET -11.7543 0.0 0.0
						CHANNELS 6 Xposition Yposition Zposition Zrotation Xrotation Yrotation 
						End Site
						{
							OFFSET 0.0 0.0 0.0
						}
					}
				}
			}
		}
	}
}
MOTION
Frames:	6
Frame Time:	0.0333333
0.000000 0.000000 0.000000 0.000000 0.000000 -0.000000 -2.133600 90.254500 -5.335790 89.409900 -1.863230 11.161700 15.735700 0.000005 -0.000001 88.231300 75.697000 -88.630900 8.984550 -0.406207 -0.000000 20.825000 -0.906880 -0.635410 16.377300 -0.000001 -0.000001 6.520970 -3.971720 2.030320 6.456720 -0.000001 -0.000000 -8.000220 -3.402320 1.007510 12.994200 -0.242716 4.980390 -90.963600 5.137360 -79.362300 5.348090 -0.000007 -0.000001 -50.628300 39.949900 -36.238400 24.328600 0.000019 0.000005 7.172830 19.303200 -20.841800 22.291600 -0.000001 0.000005 7.215920 5.276460 0.722991 12.994500 -0.242716 -4.980390 89.368700 9.869400 -86.322000 -5.348130 -0.000001 -0.000004 -54.841500 34.031400 -28.337900 -24.328900 0.000322 -0.000009 1.035800 2.528790 -22.303700 -22.291500 -0.000108 -0.000004 14.928000 5.425130 -3.772560 -2.192480 -6.469440 -0.000000 -174.149000 -13.226100 -5.280300 39.081100 -0.000007 -0.000012 -0.177048 0.253254 34.957400 40.985400 -0.000006 -0.000013 -0.171589 4.530010 -68.114700 11.754300 -0.000000 0.000003 -0.000196 -0.001817 -16.646100 -2.192510 6.469440 -0.000001 175.753000 21.377500 176.137000 -39.081100 -0.002282 -0.040193 -0.194943 0.288813 34.465100 -40.985400 0.000008 0.000006 4.631770 11.851400 -69.443900 -11.754300 -0.000006 -0.000006 -0.004481 -0.056354 -18.865700
0.000000 0.000000 0.000000 0.000000 0.000000 -0.000000 -2.105070 90.252000 -5.362150 89.397500 -1.872510 11.162400 15.735700 0.000005 -0.000001 88.227600 75.732200 -88.643400 8.984550 -0.406207 -0.000000 20.754500 -0.908275 -0.668174 16.377300 -0.000001 -0.000001 6.636280 -3.980230 1.980350 6.456720 -0.000001 -0.000000 -8.029860 -3.437570 1.048040 12.994200 -0.242716 4.980390 -90.942800 5.031360 -79.372200 5.348090 -0.000007 -0.000001 -50.707200 39.817600 -36.187600 24.328600 0.000019 0.000005 7.204910 19.385200 -20.850000 22.291600 -0.000001 0.000005 7.195680 5.275400 0.751648 12.994500 -0.242716 -4.980390 89.367100 9.812890 -86.291400 -5.348130 -0.000001 -0.000004 -54.991700 33.634800 -28.116200 -24.328900 0.000322 -0.000009 1.051710 2.473900 -23.061600 -22.291500 -0.000108 -0.000004 15.048100 5.426740 -3.827650 -2.192480 -6.469440 -0.000000 -174.160000 -13.221800 -5.310340 39.081100 -0.000007 -0.000012 -0.176760 0.252603 34.982900 40.985400 -0.000006 -0.000013 -0.150472 4.522560 -68.114900 11.754300 -0.000000 0.000003 -0.000203 -0.001873 -16.648200 -2.192510 6.469440 -0.000001 175.736000 21.446200 176.117000 -39.081100 -0.002282 -0.040193 -0.197636 0.292630 34.474800 -40.985400 0.000008 0.000006 4.632530 11.902300 -69.424800 -11.754300 -0.000006 -0.000006 -0.004487 -0.056411 -18.868000
0.000000 0.000000 0.000000 0.000000 0.000000 -0.000000 -2.075050 90.249300 -5.376240 89.387500 -1.874100 11.229800 15.735700 0.000005 -0.000001 88.222100 75.748000 -88.657000 8.984550 -0.406207 -0.000000 20.722700 -0.912086 -0.706118 16.377300 -0.000001 -0.000001 6.768560 -3.980240 1.946750 6.456720 -0.000001 -0.000000 -8.109560 -3.444820 1.001770 12.994200 -0.242716 4.980390 -90.922900 4.937970 -79.399800 5.348090 -0.000007 -0.000001 -50.756600 39.663300 -36.135500 24.328600 0.000019 0.000005 7.215270 19.376900 -20.885600 22.291600 -0.000001 0.000005 7.176640 5.276940 0.709743 12.994500 -0.242716 -4.980390 89.368400 9.714400 -86.262100 -5.348130 -0.000001 -0.000004 -55.271000 33.135900 -27.841200 -24.328900 0.000322 -0.000009 1.071570 2.420030 -23.912600 -22.291500 -0.000108 -0.000004 15.119500 5.428910 -3.901760 -2.192480 -6.469440 -0.000000 -174.150000 -13.250900 -5.259280 39.081100 -0.000007 -0.000012 -0.176883 0.252571 35.005000 40.985400 -0.000006 -0.000013 -0.122164 4.536880 -68.121700 11.754300 -0.000000 0.000003 -0.000197 -0.001831 -16.646600 -2.192510 6.469440 -0.000001 175.695000 21.476100 176.174000 -39.081100 -0.002282 -0.040193 -0.196365 0.290691 34.482900 -40.985400 0.000008 0.000006 4.627030 11.944900 -69.412000 -11.754300 -0.000006 -0.000006 -0.004583 -0.057374 -18.907300
0.000000 0.000000 0.000000 0.000000 0.000000 -0.000000 -2.052500 90.246700 -5.394030 89.382800 -1.855330 11.284300 15.735700 0.000005 -0.000001 88.187000 75.766800 -88.640000 8.984550 -0.406207 -0.000000 20.684400 -0.929904 -0.739349 16.377300 -0.000001 -0.000001 6.868680 -3.981050 1.877710 6.456720 -0.000001 -0.000000 -8.193320 -3.461750 0.954097 12.994200 -0.242716 4.980390 -90.900500 4.846350 -79.461300 5.348090 -0.000007 -0.000001 -50.807400 39.518500 -36.066900 24.328600 0.000019 0.000005 7.231460 19.346900 -20.957400 22.291600 -0.000001 0.000005 7.271410 5.275820 0.740317 12.994500 -0.242716 -4.980390 89.360300 9.625650 -86.179500 -5.348130 -0.000001 -0.000004 -55.445700 32.699400 -27.624400 -24.328900 0.000322 -0.000009 1.088740 2.342600 -24.958600 -22.291500 -0.000108 -0.000004 15.213300 5.431850 -4.002760 -2.192480 -6.469440 -0.000000 -174.154000 -13.258700 -5.228680 39.081100 -0.000007 -0.000012 -0.174042 0.248332 35.024900 40.985400 -0.000006 -0.000013 -0.095636 4.547400 -68.121600 11.754300 -0.000000 0.000003 -0.000196 -0.001821 -16.646300 -2.192510 6.469440 -0.000001 175.663000 21.480200 176.219000 -39.081100 -0.002282 -0.040193 -0.193815 0.286872 34.492800 -40.985400 0.000008 0.000006 4.613100 11.951800 -69.402800 -11.754300 -0.000006 -0.000006 -0.004525 -0.056789 -18.883400
0.000000 0.000000 0.000000 0.000000 0.000000 -0.000000 -2.031560 90.242300 -5.416260 89.383700 -1.835940 11.297600 15.735700 0.000005 -0.000001 88.125600 75.790700 -88.602100 8.984550 -0.406207 -0.000000 20.635500 -0.960696 -0.781401 16.377300 -0.000001 -0.000001 6.929080 -3.976080 1.817470 6.456720 -0.000001 -0.000000 -8.281120 -3.450110 0.916842 12.994200 -0.242716 4.980390 -90.883100 4.755000 -79.465800 5.348090 -0.000007 -0.000001 -50.862700 39.342200 -36.063600 24.328600 0.000019 0.000005 7.240490 19.310600 -21.016200 22.291600 -0.000001 0.000005 7.168580 5.275490 0.749306 12.994500 -0.242716 -4.980390 89.351400 9.582860 -86.109900 -5.348130 -0.000001 -0.000004 -55.569600 32.178900 -27.388000 -24.328900 0.000322 -0.000009 1.163000 2.357550 -26.286000 -22.291500 -0.000108 -0.000004 15.446000 5.434090 -4.079780 -2.192480 -6.469440 -0.000000 -174.168000 -13.278700 -5.242670 39.081100 -0.000007 -0.000012 -0.172098 0.245321 35.050800 40.985400 -0.000006 -0.000013 -0.060685 4.594650 -68.125100 11.754300 -0.000000 0.000003 -0.000190 -0.001774 -16.644600 -2.192510 6.469440 -0.000001 175.646000 21.469200 176.204000 -39.081100 -0.002282 -0.040193 -0.196586 0.290642 34.517000 -40.985400 0.000008 0.000006 4.590520 11.924600 -69.391600 -11.754300 -0.000006 -0.000006 -0.004587 -0.057415 -18.908900
0.000000 0.000000 0.000000 0.000000 0.000000 -0.000000 -2.015730 90.237000 -5.449120 89.368600 -1.815840 11.322100 15.735700 0.000005 -0.000001 88.101300 75.815200 -88.595900 8.984550 -0.406207 -0.000000 20.585900 -0.972764 -0.815960 16.377300 -0.000001 -0.000001 7.011870 -3.989630 1.722930 6.456720 -0.000001 -0.000000 -8.393470 -3.484880 0.916554 12.994200 -0.242716 4.980390 -90.860300 4.642100 -79.489000 5.348090 -0.000007 -0.000001 -50.867200 39.287800 -36.136700 24.328600 0.000019 0.000005 7.210210 19.259200 -20.984100 22.291600 -0.000001 0.000005 7.178110 5.275540 0.748249 12.994500 -0.242716 -4.980390 89.336400 9.545450 -86.004900 -5.348130 -0.000001 -0.000004 -55.831900 31.444200 -27.014700 -24.328900 0.000322 -0.000009 1.474320 2.783150 -27.941600 -22.291500 -0.000108 -0.000004 15.816800 5.434480 -4.093260 -2.192480 -6.469440 -0.000000 -174.155000 -13.287700 -5.256580 39.081100 -0.000007 -0.000012 -0.175375 0.249658 35.086900 40.985400 -0.000006 -0.000013 -0.039299 4.623030 -68.125000 11.754300 -0.000000 0.000003 -0.000201 -0.001860 -16.647700 -2.192510 6.469440 -0.000001 175.645000 21.522600 176.197000 -39.081100 -0.002282 -0.040193 -0.193865 0.286461 34.537900 -40.985400 0.000008 0.000006 4.596640 11.940200 -69.377800 -11.754300 -0.000006 -0.000006 -0.004670 -0.058236 -18.942400
